<?xml version="1.0" encoding="iso-8859-1"?>
<!-- Generator: Adobe Illustrator 19.0.0, SVG Export Plug-In . SVG Version: 6.00 Build 0)  -->
<svg xmlns="http://www.w3.org/2000/svg" xmlns:xlink="http://www.w3.org/1999/xlink" version="1.1" id="Layer_1" x="0px" y="0px" viewBox="0 0 512 512" style="enable-background:new 0 0 512 512;" xml:space="preserve" width="512" height="512">
<g>
	<rect x="272" y="76" style="fill:#465A61;" width="30" height="60"/>
	<rect x="287" y="76" style="fill:#3B4A51;" width="15" height="60"/>
	<rect x="92" y="61" style="fill:#D3D3D8;" width="420" height="30"/>
	<rect x="287" y="61" style="fill:#BABAC0;" width="225" height="30"/>
	<polygon style="fill:#BABAC0;" points="30,286 30,361 84.272,361 118.418,292.709  "/>
	<polygon style="fill:#D3D3D8;" points="360.5,189.399 287,193.599 242,196 242,121 326.3,121  "/>
	<polygon style="fill:#BABAC0;" points="360.5,189.399 287,193.599 287,121 326.3,121  "/>
	<rect x="392" y="376" style="fill:#3B4A51;" width="30" height="60"/>
	<rect x="302" y="376" style="fill:#3B4A51;" width="30" height="60"/>
	<path style="fill:#66C0EE;" d="M512,281.499V286c0,57.9-47.1,105-105,105H305.3c-6.299,0-12.299-0.601-18.3-1.8   c-28.2-4.801-53.101-20.7-69.3-45L188.899,301H60c-32.999,0-60-27.001-60-60V121h53.101l58.799,90H193.4l60-30l33.6,38.399L332,271   L512,281.499z"/>
	<path style="fill:#27B2EB;" d="M512,281.499V286c0,57.9-47.1,105-105,105H305.3c-6.299,0-12.299-0.601-18.3-1.8V219.399L332,271   L512,281.499z"/>
	<path style="fill:#465A61;" d="M407,234.099l-30,47.401h-56.7L287,231.4L253.4,181h75.3c16.5,0,32.699,2.1,48.3,5.7L407,234.099z"/>
	<path style="fill:#596C76;" d="M407,234.099l-30,47.401h-56.7L287,231.4V181h41.7c16.5,0,32.699,2.1,48.3,5.7L407,234.099z"/>
	<path style="fill:#465A61;" d="M509.48,277.68c-31.243-46.87-78.853-78.867-132.48-91.04v94.77h134.967L509.48,277.68z"/>
	<path style="fill:#D3D3D8;" d="M512,391c0,32.999-27.001,60-60,60H212v-30h240c16.5,0,30-13.5,30-30H512z"/>
	<path style="fill:#BABAC0;" d="M512,391c0,32.999-27.001,60-60,60H287v-30h165c16.5,0,30-13.5,30-30H512z"/>
</g>















</svg>
